<?xml version="1.0" encoding="iso-8859-1"?>
<!-- Generator: Adobe Illustrator 15.0.0, SVG Export Plug-In . SVG Version: 6.00 Build 0)  -->
<!DOCTYPE svg PUBLIC "-//W3C//DTD SVG 1.1//EN" "http://www.w3.org/Graphics/SVG/1.1/DTD/svg11.dtd">
<svg version="1.1" id="&#x30EC;&#x30A4;&#x30E4;&#x30FC;_1"
	 xmlns="http://www.w3.org/2000/svg" xmlns:xlink="http://www.w3.org/1999/xlink" x="0px" y="0px" width="141.732px"
	 height="141.731px" viewBox="0 0 141.732 141.731" style="enable-background:new 0 0 141.732 141.731;" xml:space="preserve">
<path style="fill-rule:evenodd;clip-rule:evenodd;fill:#4F4F4F;" d="M22.847,24.181c-2.948,0-5.335,2.388-5.335,5.336v10.671
	c0,2.947,2.387,5.335,5.335,5.335h4.001l5.335,77.444c0,4.375,3.548,7.923,7.923,7.923h61.518c4.375,0,7.924-3.548,7.924-7.923
	l5.335-77.444h4.002c2.948,0,5.335-2.388,5.335-5.335V29.517c0-2.948-2.387-5.336-5.335-5.336H86.072l-2.667-8.323
	c0-2.769-2.247-5.015-5.016-5.015H63.343c-2.769,0-5.016,2.246-5.016,5.015l-2.667,8.323H22.847z M50.591,50.858
	c2.652,0,4.802,2.089,4.802,4.668v57.356c0,2.579-2.15,4.669-4.802,4.669c-2.651,0-4.802-2.09-4.802-4.669V55.527
	C45.79,52.947,47.94,50.858,50.591,50.858z M91.14,50.858c2.652,0,4.803,2.089,4.803,4.668v57.356c0,2.579-2.15,4.669-4.803,4.669
	c-2.65,0-4.801-2.09-4.801-4.669V55.527C86.339,52.947,88.49,50.858,91.14,50.858z M70.866,50.858c2.652,0,4.801,2.089,4.801,4.668
	v57.356c0,2.579-2.149,4.669-4.801,4.669s-4.802-2.09-4.802-4.669V55.527C66.064,52.947,68.214,50.858,70.866,50.858z"/>
</svg>
