<svg width="21" height="20" viewBox="0 0 21 20" fill="none" xmlns="http://www.w3.org/2000/svg">
<path d="M10.1541 1.80113C12.8275 1.80113 13.1441 1.81285 14.1955 1.85974C15.1726 1.90272 15.7003 2.06681 16.052 2.20356C16.5172 2.38328 16.8533 2.60207 17.2012 2.94979C17.5529 3.30143 17.7679 3.63352 17.9477 4.09846C18.0845 4.45009 18.2486 4.98144 18.2916 5.95429C18.3385 7.00918 18.3503 7.32565 18.3503 9.99414C18.3503 12.6665 18.3385 12.983 18.2916 14.034C18.2486 15.0107 18.0845 15.5382 17.9477 15.8898C17.7679 16.3548 17.549 16.6908 17.2012 17.0385C16.8494 17.3901 16.5172 17.605 16.052 17.7847C15.7003 17.9215 15.1687 18.0856 14.1955 18.1285C13.1402 18.1754 12.8236 18.1871 10.1541 18.1871C7.48061 18.1871 7.16402 18.1754 6.11263 18.1285C5.13549 18.0856 4.60784 17.9215 4.25607 17.7847C3.79095 17.605 3.45482 17.3862 3.10696 17.0385C2.75519 16.6869 2.54022 16.3548 2.36043 15.8898C2.22363 15.5382 2.05947 15.0068 2.01648 14.034C1.96957 12.9791 1.95785 12.6626 1.95785 9.99414C1.95785 7.32174 1.96957 7.00527 2.01648 5.95429C2.05947 4.97753 2.22363 4.45009 2.36043 4.09846C2.54022 3.63352 2.7591 3.29752 3.10696 2.94979C3.45873 2.59816 3.79095 2.38328 4.25607 2.20356C4.60784 2.06681 5.1394 1.90272 6.11263 1.85974C7.16402 1.81285 7.48061 1.80113 10.1541 1.80113ZM10.1541 0C7.43762 0 7.09758 0.011721 6.03055 0.0586052C4.96742 0.105489 4.23653 0.277398 3.60334 0.52354C2.9428 0.781403 2.38388 1.12131 1.82887 1.68002C1.26994 2.23481 0.929901 2.79351 0.671938 3.44989C0.4257 4.08674 0.253724 4.81344 0.206821 5.87615C0.159919 6.94667 0.148193 7.28658 0.148193 10.002C0.148193 12.7173 0.159919 13.0572 0.206821 14.1239C0.253724 15.1866 0.4257 15.9172 0.671938 16.5501C0.929901 17.2104 1.26994 17.7691 1.82887 18.3239C2.38388 18.8787 2.9428 19.2225 3.59943 19.4765C4.23653 19.7226 4.96351 19.8945 6.02664 19.9414C7.09367 19.9883 7.43371 20 10.1501 20C12.8666 20 13.2066 19.9883 14.2737 19.9414C15.3368 19.8945 16.0677 19.7226 16.7009 19.4765C17.3575 19.2225 17.9164 18.8787 18.4714 18.3239C19.0264 17.7691 19.3704 17.2104 19.6244 16.554C19.8707 15.9172 20.0427 15.1905 20.0896 14.1278C20.1365 13.0611 20.1482 12.7212 20.1482 10.0059C20.1482 7.29049 20.1365 6.95058 20.0896 5.88396C20.0427 4.82125 19.8707 4.09064 19.6244 3.45771C19.3782 2.79351 19.0382 2.23481 18.4792 1.68002C17.9242 1.12522 17.3653 0.781403 16.7087 0.527447C16.0716 0.281305 15.3446 0.109396 14.2815 0.0625122C13.2105 0.011721 12.8705 0 10.1541 0Z" fill="#FFA85F"/>
<path d="M10.154 4.86426C7.31641 4.86426 5.01428 7.16549 5.01428 10.002C5.01428 12.8385 7.31641 15.1397 10.154 15.1397C12.9916 15.1397 15.2937 12.8385 15.2937 10.002C15.2937 7.16549 12.9916 4.86426 10.154 4.86426ZM10.154 13.3347C8.31309 13.3347 6.82003 11.8422 6.82003 10.002C6.82003 8.16178 8.31309 6.6693 10.154 6.6693C11.9949 6.6693 13.488 8.16178 13.488 10.002C13.488 11.8422 11.9949 13.3347 10.154 13.3347Z" fill="#FFA85F"/>
<path d="M16.697 4.66112C16.697 5.32532 16.1576 5.86058 15.497 5.86058C14.8326 5.86058 14.2971 5.32141 14.2971 4.66112C14.2971 3.99693 14.8365 3.46167 15.497 3.46167C16.1576 3.46167 16.697 4.00084 16.697 4.66112Z" fill="#FFA85F"/>
</svg>
