<svg width="126" height="36" viewBox="0 0 126 36" fill="none" xmlns="http://www.w3.org/2000/svg">
<path d="M121.871 28.3456C119.998 28.3456 118.478 29.8648 118.478 31.7391C118.478 33.6126 119.998 35.1311 121.871 35.1311C123.745 35.1311 125.265 33.6126 125.265 31.7391C125.265 29.8648 123.745 28.3456 121.871 28.3456ZM121.871 33.4347C120.934 33.4347 120.175 32.6752 120.175 31.7391C120.175 30.8016 120.934 30.042 121.871 30.042C122.808 30.042 123.568 30.8016 123.568 31.7391C123.568 32.6752 122.808 33.4347 121.871 33.4347Z" fill="white"/>
<path d="M110.153 24.5626C108.307 24.5626 105.908 24.5626 105.447 24.5626C104.985 24.5626 104.708 24.8386 104.708 25.2079C104.708 25.5772 104.708 26.0141 104.708 26.0141H111.713C111.713 26.0141 111.998 24.5626 110.153 24.5626Z" fill="white"/>
<path d="M107.476 35.1311C109.086 35.1311 110.43 34.0097 110.779 32.5081H104.175C104.524 34.0097 105.869 35.1311 107.476 35.1311Z" fill="white"/>
<path d="M121.407 27.4874C122.376 27.3934 123.971 27.7376 124.629 28.3944L125.004 27.7688C124.503 27.0498 123.164 26.4904 122.252 26.3619C122.252 26.3619 120.044 20.6533 119.893 20.2786C119.672 19.7273 119.432 19.7246 119.064 19.7246C118.998 19.7246 117.064 19.7246 117.064 19.7246C116.878 19.7246 116.726 19.8768 116.726 20.0635C116.726 20.2501 116.878 20.4017 117.064 20.4017H118.531L119.95 26.575C118.457 27.0694 117.035 28.4756 116.672 30.1699C116.405 30.1699 115.68 30.1699 114.213 30.1699C111.721 30.1699 111.629 26.4755 111.629 26.4755H105.077C105.077 26.4755 103.101 27.9047 103.101 32.0151H117.596C117.596 29.1858 119.575 27.6646 121.407 27.4874Z" fill="white"/>
<path d="M121.979 23.5563C122.33 23.5563 122.725 23.5563 122.725 23.5563V21.5163C122.725 21.5163 122.33 21.5163 121.979 21.5163C121.614 21.5163 121.126 21.9275 121.126 22.3692V22.7027C121.126 23.145 121.614 23.5563 121.979 23.5563Z" fill="white"/>
<path d="M123.495 21.5163C123.495 21.5163 123.467 21.5163 123.117 21.5163V23.5563C123.468 23.5563 123.495 23.5563 123.495 23.5563V21.5163Z" fill="white"/>
<path d="M115.185 14.7418L111.744 12.6994C112.547 12.2123 113.039 11.3597 113.04 10.4551C113.04 10.2402 113.012 10.0228 112.954 9.80789L112.896 9.59745L112.686 9.53584C112.468 9.47236 112.252 9.44291 112.043 9.44397C111.625 9.44294 111.241 9.56088 110.905 9.73669C110.402 10.0028 110.001 10.3979 109.703 10.7837C109.644 10.8598 109.59 10.9359 109.541 11.0114C109.533 11.0106 109.524 11.0106 109.515 11.0106H109.028C108.905 11.0106 108.786 11.0347 108.676 11.0808C108.612 10.9734 108.54 10.8623 108.458 10.7499C108.213 10.4137 107.888 10.0636 107.486 9.78882C107.284 9.65111 107.062 9.53314 106.822 9.44823C106.581 9.36413 106.32 9.31305 106.046 9.31387C105.837 9.31302 105.621 9.34247 105.404 9.40595L105.193 9.46733L105.136 9.678C105.077 9.89287 105.05 10.1103 105.05 10.3251C105.05 11.0227 105.343 11.6898 105.846 12.1812C106.052 12.3841 106.294 12.5573 106.567 12.6898L103.11 14.741C102.586 15.0217 102.259 15.5693 102.259 16.1654V19.9313C102.259 20.5637 102.628 21.1375 103.201 21.4018L107.958 23.5896C108.336 23.7639 108.742 23.8506 109.148 23.8506C109.554 23.8506 109.96 23.7639 110.337 23.5896L115.094 21.4018C115.668 21.1375 116.036 20.5638 116.036 19.9313V16.1654C116.036 15.5693 115.709 15.0225 115.185 14.7418ZM110.262 11.3381C110.464 11.06 110.736 10.7723 111.043 10.5625C111.196 10.4578 111.359 10.3728 111.526 10.314C111.693 10.2559 111.864 10.2238 112.043 10.2238C112.11 10.2238 112.177 10.2282 112.246 10.2377C112.256 10.3104 112.261 10.3823 112.261 10.4551C112.261 10.9308 112.058 11.4022 111.698 11.7548C111.519 11.9308 111.3 12.0762 111.049 12.1795C111.013 12.1942 110.976 12.2081 110.937 12.2211C110.754 12.2842 110.553 12.325 110.337 12.3363C110.402 12.2072 110.433 12.0676 110.433 11.9282V11.9211C110.432 11.7611 110.389 11.6015 110.304 11.4585C110.285 11.4264 110.264 11.3961 110.241 11.3675C110.249 11.3579 110.255 11.3478 110.262 11.3381ZM108.411 12.7459L108.587 12.4209L108.892 11.8584C108.915 11.8156 108.957 11.787 109.006 11.7802C109.012 11.7792 109.019 11.7792 109.026 11.7792H109.562C109.615 11.7792 109.665 11.807 109.692 11.8534C109.706 11.8776 109.713 11.9043 109.713 11.931C109.713 11.9463 109.711 11.9615 109.705 11.9766C109.703 11.985 109.7 11.9949 109.695 12.0033L109.532 12.3044L109.215 12.8908C109.188 12.9404 109.136 12.9709 109.08 12.9709H108.544C108.491 12.9709 108.442 12.9421 108.414 12.8965C108.399 12.8719 108.393 12.846 108.393 12.8182C108.393 12.7935 108.399 12.7686 108.411 12.7459ZM105.829 10.3251C105.829 10.2522 105.833 10.1803 105.843 10.1078C105.912 10.0981 105.979 10.0937 106.046 10.0937C106.318 10.0937 106.575 10.1683 106.822 10.2974C107.189 10.4898 107.523 10.8085 107.768 11.1285C107.89 11.2879 107.991 11.4472 108.065 11.5849C108.084 11.6198 108.1 11.6535 108.116 11.6855L108.048 11.8123L107.832 12.209C107.697 12.2073 107.568 12.1926 107.445 12.1693C107.301 12.1413 107.166 12.1007 107.04 12.0496C106.287 11.7428 105.828 11.0392 105.829 10.3251ZM115.256 19.9313C115.256 20.2589 115.065 20.556 114.768 20.6928L110.011 22.8817C109.737 23.0074 109.443 23.0707 109.148 23.0707C108.853 23.0707 108.558 23.0075 108.284 22.8817L103.527 20.6928C103.23 20.556 103.039 20.2589 103.039 19.9313V16.1654C103.039 15.8534 103.212 15.5666 103.49 15.422L103.499 15.4178L107.61 12.9785C107.642 12.981 107.675 12.9835 107.708 12.9854C107.729 13.0617 107.761 13.1353 107.802 13.2047C107.885 13.3441 108.002 13.4559 108.137 13.5329C108.274 13.6111 108.429 13.6536 108.591 13.6536H109.078C109.415 13.6536 109.725 13.4688 109.885 13.1725L109.92 13.1084C110.014 13.117 110.106 13.1206 110.198 13.1206C110.414 13.1206 110.622 13.0998 110.821 13.059L114.797 15.4177L114.806 15.422C115.083 15.5666 115.256 15.8534 115.256 16.1654L115.256 19.9313Z" fill="white"/>
<path d="M108.628 18.2225L103.58 15.9003C103.493 15.8604 103.39 15.8984 103.35 15.9857C103.31 16.0725 103.348 16.1753 103.435 16.2155L108.483 18.5375C108.57 18.5774 108.673 18.5394 108.713 18.4523C108.753 18.3655 108.715 18.2624 108.628 18.2225Z" fill="white"/>
<path d="M114.715 15.9003L109.667 18.2225C109.58 18.2624 109.542 18.3655 109.582 18.4523C109.622 18.5394 109.725 18.5774 109.812 18.5375L114.86 16.2155C114.947 16.1753 114.985 16.0725 114.945 15.9857C114.905 15.8984 114.803 15.8604 114.715 15.9003Z" fill="white"/>
<path d="M109.098 18.8227C109.002 18.8227 108.924 18.9003 108.924 18.996V22.4766C108.924 22.5722 109.002 22.6498 109.098 22.6498C109.194 22.6498 109.271 22.5722 109.271 22.4766V18.996C109.271 18.9003 109.194 18.8227 109.098 18.8227Z" fill="white"/>
<path d="M109.141 17.5375V14.0714C109.141 13.9757 109.063 13.8982 108.968 13.8982C108.872 13.8982 108.795 13.9757 108.795 14.0714V17.5375C108.795 17.6332 108.872 17.7108 108.968 17.7108C109.063 17.7108 109.141 17.6332 109.141 17.5375Z" fill="white"/>
<path d="M1.716 6.0829C1.44 6.0829 1.192 6.0549 0.972 5.9989C0.752 5.9389 0.56 5.8309 0.396 5.6749C0.236 5.5149 0.104 5.2869 0 4.9909L0.78 4.5469C0.828 4.7429 0.926 4.8929 1.074 4.9969C1.222 5.1009 1.436 5.1529 1.716 5.1529C1.964 5.1529 2.226 5.1409 2.502 5.1169C2.778 5.0889 3.04 5.0529 3.288 5.0089C3.536 4.9649 3.74 4.9149 3.9 4.8589C3.896 4.9429 3.9 5.0489 3.912 5.1769C3.924 5.3009 3.94 5.4249 3.96 5.5489C3.984 5.6689 4.008 5.7649 4.032 5.8369C3.868 5.8889 3.658 5.9329 3.402 5.9689C3.146 6.0049 2.872 6.0329 2.58 6.0529C2.288 6.0729 2 6.0829 1.716 6.0829ZM0.69 2.5669V1.6669C0.81 1.7069 0.962 1.7369 1.146 1.7569C1.33 1.7769 1.528 1.7889 1.74 1.7929C1.956 1.7969 2.17 1.7949 2.382 1.7869C2.594 1.7749 2.79 1.7569 2.97 1.7329C3.154 1.7089 3.304 1.6789 3.42 1.6429V2.5489C3.32 2.5769 3.178 2.6009 2.994 2.6209C2.814 2.6409 2.614 2.6549 2.394 2.6629C2.178 2.6709 1.958 2.6729 1.734 2.6689C1.514 2.6649 1.312 2.6549 1.128 2.6389C0.944 2.6229 0.798 2.5989 0.69 2.5669ZM4.698 2.1709C4.622 2.0429 4.526 1.9129 4.41 1.7809C4.298 1.6489 4.196 1.5389 4.104 1.4509L4.494 1.1389C4.546 1.1869 4.612 1.2549 4.692 1.3429C4.772 1.4309 4.85 1.5229 4.926 1.6189C5.002 1.7109 5.062 1.7889 5.106 1.8529L4.698 2.1709ZM4.122 2.6329C4.046 2.5049 3.95 2.3749 3.834 2.2429C3.722 2.1069 3.62 1.9969 3.528 1.9129L3.918 1.6009C3.97 1.6489 4.036 1.7169 4.116 1.8049C4.196 1.8929 4.274 1.9849 4.35 2.0809C4.426 2.1729 4.486 2.2509 4.53 2.3149L4.122 2.6329Z" fill="white"/>
<path d="M8.148 6.5449C8.136 6.4609 8.11 6.3629 8.07 6.2509C8.03 6.1389 7.98 6.0269 7.92 5.9149C7.864 5.8029 7.804 5.7109 7.74 5.6389C8.42 5.6949 8.942 5.6509 9.306 5.5069C9.67 5.3629 9.852 5.1409 9.852 4.8409C9.852 4.6889 9.788 4.5649 9.66 4.4689C9.532 4.3729 9.362 4.3249 9.15 4.3249C8.902 4.3249 8.658 4.3669 8.418 4.4509C8.178 4.5309 7.964 4.6669 7.776 4.8589C7.748 4.8989 7.718 4.9389 7.686 4.9789C7.654 5.0189 7.622 5.0549 7.59 5.0869L6.87 4.5889C7.058 4.4009 7.216 4.1589 7.344 3.8629C7.476 3.5669 7.582 3.2549 7.662 2.9269C7.122 2.9469 6.67 2.9469 6.306 2.9269L6.252 2.0569C6.416 2.0849 6.636 2.1029 6.912 2.1109C7.188 2.1149 7.49 2.1109 7.818 2.0989C7.838 1.9229 7.852 1.7509 7.86 1.5829C7.872 1.4149 7.876 1.2629 7.872 1.1269H8.796C8.796 1.2589 8.79 1.4049 8.778 1.5649C8.766 1.7209 8.75 1.8849 8.73 2.0569C9.01 2.0369 9.278 2.0149 9.534 1.9909C9.794 1.9629 10.028 1.9329 10.236 1.9009C10.444 1.8649 10.61 1.8269 10.734 1.7869L10.668 2.6509C10.516 2.6829 10.33 2.7149 10.11 2.7469C9.89 2.7749 9.648 2.8009 9.384 2.8249C9.124 2.8489 8.856 2.8689 8.58 2.8849C8.516 3.1729 8.434 3.4629 8.334 3.7549C8.486 3.6789 8.636 3.6209 8.784 3.5809C8.932 3.5409 9.08 3.5209 9.228 3.5209C9.536 3.5209 9.808 3.5749 10.044 3.6829C10.28 3.7909 10.464 3.9449 10.596 4.1449C10.728 4.3449 10.794 4.5829 10.794 4.8589C10.794 5.4269 10.562 5.8569 10.098 6.1489C9.638 6.4449 8.988 6.5769 8.148 6.5449Z" fill="white"/>
<path d="M16.878 6.5689C16.43 6.5889 16.036 6.5409 15.696 6.4249C15.36 6.3129 15.096 6.1389 14.904 5.9029C14.716 5.6669 14.622 5.3769 14.622 5.0329C14.622 4.8569 14.654 4.6949 14.718 4.5469C14.786 4.3949 14.878 4.2549 14.994 4.1269C14.734 4.1749 14.484 4.2289 14.244 4.2889C14.004 4.3449 13.788 4.4029 13.596 4.4629C13.404 4.5229 13.248 4.5829 13.128 4.6429L12.816 3.8149C12.868 3.8069 12.946 3.7929 13.05 3.7729C13.158 3.7529 13.298 3.7269 13.47 3.6949C13.61 3.6669 13.766 3.5949 13.938 3.4789C14.114 3.3629 14.292 3.2229 14.472 3.0589C14.656 2.8949 14.83 2.7249 14.994 2.5489C15.158 2.3689 15.298 2.2029 15.414 2.0509C15.174 2.1029 14.928 2.1529 14.676 2.2009C14.428 2.2449 14.222 2.2709 14.058 2.2789L13.806 1.4569C13.958 1.4569 14.136 1.4489 14.34 1.4329C14.544 1.4169 14.75 1.3949 14.958 1.3669C15.17 1.3389 15.364 1.3069 15.54 1.2709C15.716 1.2309 15.854 1.1869 15.954 1.1389L16.698 1.6129C16.562 1.8809 16.364 2.1709 16.104 2.4829C15.844 2.7949 15.544 3.0869 15.204 3.3589C15.516 3.2989 15.816 3.2429 16.104 3.1909C16.396 3.1349 16.652 3.0869 16.872 3.0469C17.092 3.0029 17.25 2.9709 17.346 2.9509L17.484 3.8089C17.404 3.8089 17.306 3.8129 17.19 3.8209C17.078 3.8249 16.958 3.8329 16.83 3.8449C16.622 3.8649 16.418 3.9189 16.218 4.0069C16.022 4.0909 15.86 4.2149 15.732 4.3789C15.604 4.5389 15.54 4.7449 15.54 4.9969C15.54 5.2529 15.688 5.4369 15.984 5.5489C16.28 5.6569 16.676 5.6909 17.172 5.6509C17.12 5.7349 17.072 5.8329 17.028 5.9449C16.984 6.0529 16.948 6.1629 16.92 6.2749C16.896 6.3869 16.882 6.4849 16.878 6.5689Z" fill="white"/>
<path d="M21.96 6.6349C21.9 6.5749 21.816 6.5129 21.708 6.4489C21.6 6.3889 21.486 6.3329 21.366 6.2809C21.25 6.2289 21.142 6.1929 21.042 6.1729C21.302 6.0329 21.538 5.8529 21.75 5.6329C21.966 5.4129 22.138 5.1629 22.266 4.8829C22.394 4.6029 22.458 4.3009 22.458 3.9769C22.458 3.8129 22.418 3.6929 22.338 3.6169C22.262 3.5369 22.154 3.4969 22.014 3.4969C21.838 3.4969 21.656 3.5209 21.468 3.5689C21.284 3.6169 21.11 3.6789 20.946 3.7549C20.782 3.8309 20.64 3.9129 20.52 4.0009C20.496 3.9369 20.452 3.8529 20.388 3.7489C20.328 3.6409 20.264 3.5349 20.196 3.4309C20.128 3.3229 20.066 3.2429 20.01 3.1909C20.314 3.0469 20.634 2.9209 20.97 2.8129C21.31 2.7049 21.658 2.6509 22.014 2.6509C22.418 2.6509 22.744 2.7669 22.992 2.9989C23.24 3.2309 23.364 3.5569 23.364 3.9769C23.364 4.3569 23.302 4.7149 23.178 5.0509C23.058 5.3869 22.892 5.6889 22.68 5.9569C22.472 6.2249 22.232 6.4509 21.96 6.6349ZM22.614 2.4169C22.51 2.3929 22.378 2.3569 22.218 2.3089C22.062 2.2609 21.896 2.2069 21.72 2.1469C21.548 2.0869 21.386 2.0269 21.234 1.9669C21.082 1.9069 20.96 1.8549 20.868 1.8109L21.288 1.0489C21.364 1.0849 21.47 1.1289 21.606 1.1809C21.742 1.2329 21.892 1.2869 22.056 1.3429C22.22 1.3949 22.378 1.4429 22.53 1.4869C22.682 1.5309 22.81 1.5629 22.914 1.5829L22.614 2.4169Z" fill="white"/>
<path d="M27.606 6.3769C27.286 6.4169 27.008 6.3989 26.772 6.3229C26.536 6.2509 26.354 6.1349 26.226 5.9749C26.098 5.8109 26.034 5.6169 26.034 5.3929C26.034 5.1009 26.148 4.8129 26.376 4.5289C26.608 4.2449 26.932 4.0109 27.348 3.8269V3.0589C27.132 3.0749 26.922 3.0869 26.718 3.0949C26.514 3.0989 26.324 3.0969 26.148 3.0889L26.112 2.2429C26.256 2.2589 26.436 2.2649 26.652 2.2609C26.872 2.2529 27.104 2.2409 27.348 2.2249V1.3429H28.164V2.1289C28.564 2.0729 28.874 2.0009 29.094 1.9129L29.172 2.7169C28.896 2.8169 28.56 2.8969 28.164 2.9569V3.5809C28.292 3.5609 28.422 3.5449 28.554 3.5329C28.686 3.5209 28.824 3.5149 28.968 3.5149C29.376 3.5149 29.718 3.5789 29.994 3.7069C30.274 3.8349 30.484 4.0049 30.624 4.2169C30.768 4.4289 30.84 4.6629 30.84 4.9189C30.84 5.3189 30.72 5.6389 30.48 5.8789C30.244 6.1149 29.914 6.2329 29.49 6.2329C29.174 6.2329 28.906 6.1549 28.686 5.9989C28.47 5.8389 28.316 5.6069 28.224 5.3029C28.344 5.2669 28.48 5.2169 28.632 5.1529C28.788 5.0849 28.918 5.0129 29.022 4.9369C29.11 5.2129 29.264 5.3509 29.484 5.3509C29.632 5.3509 29.738 5.3049 29.802 5.2129C29.866 5.1169 29.898 5.0089 29.898 4.8889C29.898 4.7249 29.828 4.5809 29.688 4.4569C29.548 4.3329 29.308 4.2709 28.968 4.2709C28.824 4.2709 28.684 4.2789 28.548 4.2949C28.416 4.3109 28.288 4.3349 28.164 4.3669V5.8129C28.164 5.9889 28.122 6.1209 28.038 6.2089C27.958 6.2969 27.814 6.3529 27.606 6.3769ZM30.642 3.5689C30.566 3.4969 30.47 3.4189 30.354 3.3349C30.242 3.2509 30.12 3.1669 29.988 3.0829C29.86 2.9989 29.732 2.9229 29.604 2.8549C29.48 2.7829 29.37 2.7289 29.274 2.6929L29.736 2.0269C29.888 2.0869 30.05 2.1649 30.222 2.2609C30.398 2.3529 30.566 2.4529 30.726 2.5609C30.89 2.6689 31.03 2.7769 31.146 2.8849C31.09 2.9409 31.026 3.0149 30.954 3.1069C30.886 3.1949 30.822 3.2829 30.762 3.3709C30.706 3.4549 30.666 3.5209 30.642 3.5689ZM27.096 5.5909C27.264 5.6069 27.348 5.5589 27.348 5.4469V4.7209C27.204 4.8169 27.092 4.9189 27.012 5.0269C26.932 5.1349 26.892 5.2409 26.892 5.3449C26.892 5.4089 26.906 5.4649 26.934 5.5129C26.966 5.5569 27.02 5.5829 27.096 5.5909Z" fill="white"/>
<path d="M32.82 6.6829C32.756 6.5429 32.678 6.4089 32.586 6.2809C32.498 6.1569 32.402 6.0469 32.298 5.9509C32.638 5.8549 32.91 5.7469 33.114 5.6269C33.322 5.5069 33.478 5.3609 33.582 5.1889C33.686 5.0129 33.75 4.7989 33.774 4.5469H32.352V3.7429H33.792V3.0769H34.668V3.7429H35.562V3.0769H36.438V3.7429H37.842V4.5469H36.438V6.6169H35.562V4.5469H34.656C34.628 4.8949 34.546 5.2029 34.41 5.4709C34.278 5.7389 34.082 5.9709 33.822 6.1669C33.566 6.3669 33.232 6.5389 32.82 6.6829ZM37.11 3.3469C36.958 3.1509 36.762 2.9389 36.522 2.7109C36.31 2.7389 36.064 2.7669 35.784 2.7949C35.504 2.8229 35.21 2.8529 34.902 2.8849C34.598 2.9129 34.296 2.9409 33.996 2.9689C33.696 2.9929 33.416 3.0169 33.156 3.0409C32.9 3.0609 32.68 3.0769 32.496 3.0889L32.388 2.2669C32.532 2.2589 32.696 2.2509 32.88 2.2429C33.064 2.2349 33.258 2.2249 33.462 2.2129C33.578 2.0129 33.688 1.8029 33.792 1.5829C33.9 1.3589 33.986 1.1629 34.05 0.994897L35.04 1.1509C34.976 1.2709 34.888 1.4249 34.776 1.6129C34.668 1.8009 34.558 1.9829 34.446 2.1589C34.686 2.1469 34.92 2.1329 35.148 2.1169C35.38 2.1009 35.594 2.0869 35.79 2.0749C35.714 2.0149 35.638 1.9589 35.562 1.9069C35.486 1.8509 35.414 1.8029 35.346 1.7629L35.934 1.1389C36.15 1.2829 36.37 1.4449 36.594 1.6249C36.822 1.8049 37.036 1.9869 37.236 2.1709C37.44 2.3549 37.614 2.5269 37.758 2.6869C37.654 2.7749 37.542 2.8749 37.422 2.9869C37.306 3.0989 37.202 3.2189 37.11 3.3469Z" fill="white"/>
<path d="M39.252 6.4909V5.7229H43.104V5.2309H39.456V4.4689H43.104V4.0309H39.252V3.2809H41.208V1.1329H42.138V3.2809H44.04V6.4909H39.252ZM43.116 3.2029C43.052 3.1549 42.972 3.1049 42.876 3.0529C42.784 3.0009 42.69 2.9529 42.594 2.9089C42.498 2.8649 42.41 2.8329 42.33 2.8129C42.41 2.7169 42.492 2.6009 42.576 2.4649C42.66 2.3289 42.74 2.1869 42.816 2.0389C42.896 1.8869 42.966 1.7389 43.026 1.5949C43.09 1.4509 43.138 1.3229 43.17 1.2109L44.034 1.5349C43.958 1.7229 43.868 1.9209 43.764 2.1289C43.66 2.3369 43.55 2.5349 43.434 2.7229C43.322 2.9109 43.216 3.0709 43.116 3.2029ZM40.122 3.2389C40.074 3.0909 40.004 2.9209 39.912 2.7289C39.82 2.5369 39.718 2.3469 39.606 2.1589C39.498 1.9709 39.39 1.8149 39.282 1.6909L40.05 1.2829C40.166 1.4229 40.28 1.5809 40.392 1.7569C40.508 1.9289 40.616 2.1069 40.716 2.2909C40.816 2.4749 40.898 2.6489 40.962 2.8129C40.89 2.8409 40.802 2.8809 40.698 2.9329C40.594 2.9809 40.49 3.0329 40.386 3.0889C40.286 3.1449 40.198 3.1949 40.122 3.2389Z" fill="white"/>
<path d="M49.608 5.6389C49.6 5.5309 49.584 5.4089 49.56 5.2729C49.536 5.1329 49.508 5.0209 49.476 4.9369H49.674C49.75 4.9369 49.804 4.9269 49.836 4.9069C49.868 4.8829 49.884 4.8349 49.884 4.7629V4.6489H49.386V5.5129H48.588V4.6489H48.102V5.6089H47.298V2.4649H48.378C48.282 2.3969 48.184 2.3349 48.084 2.2789C47.988 2.2189 47.9 2.1729 47.82 2.1409L48.09 1.8109H47.352V1.1809H50.28L50.52 1.4929C50.452 1.5769 50.362 1.6749 50.25 1.7869C50.138 1.8989 50.018 2.0149 49.89 2.1349C49.766 2.2509 49.644 2.3609 49.524 2.4649H50.688V5.0089C50.688 5.2289 50.622 5.3889 50.49 5.4889C50.362 5.5889 50.168 5.6389 49.908 5.6389H49.608ZM45.72 6.5629L45.39 5.7289C45.462 5.7049 45.546 5.6769 45.642 5.6449C45.738 5.6089 45.832 5.5709 45.924 5.5309C46.016 5.4909 46.088 5.4549 46.14 5.4229V4.0069H45.552V3.2449H46.944V5.2909C46.944 5.4669 47.1 5.5949 47.412 5.6749C47.724 5.7509 48.186 5.7889 48.798 5.7889C49.338 5.7889 49.802 5.7809 50.19 5.7649C50.582 5.7449 50.888 5.7149 51.108 5.6749C51.084 5.7349 51.058 5.8189 51.03 5.9269C51.002 6.0309 50.978 6.1389 50.958 6.2509C50.938 6.3629 50.926 6.4609 50.922 6.5449H48.798C48.362 6.5449 48.002 6.5229 47.718 6.4789C47.434 6.4389 47.204 6.3789 47.028 6.2989C46.852 6.2189 46.71 6.1249 46.602 6.0169C46.49 6.1049 46.348 6.2009 46.176 6.3049C46.008 6.4089 45.856 6.4949 45.72 6.5629ZM46.572 2.6809C46.504 2.5769 46.41 2.4609 46.29 2.3329C46.174 2.2049 46.052 2.0809 45.924 1.9609C45.796 1.8409 45.68 1.7449 45.576 1.6729L46.164 1.1269C46.236 1.1709 46.32 1.2329 46.416 1.3129C46.512 1.3929 46.61 1.4809 46.71 1.5769C46.81 1.6729 46.902 1.7669 46.986 1.8589C47.074 1.9469 47.144 2.0249 47.196 2.0929C47.144 2.1329 47.076 2.1889 46.992 2.2609C46.912 2.3329 46.832 2.4069 46.752 2.4829C46.676 2.5589 46.616 2.6249 46.572 2.6809ZM49.386 4.1029H49.884V3.8569H49.386V4.1029ZM48.954 2.1109C49.014 2.0549 49.074 2.0009 49.134 1.9489C49.194 1.8969 49.244 1.8509 49.284 1.8109H48.474C48.55 1.8549 48.63 1.9049 48.714 1.9609C48.798 2.0129 48.878 2.0629 48.954 2.1109ZM48.102 4.1029H48.588V3.8569H48.102V4.1029ZM49.386 3.3109H49.884V3.0709H49.386V3.3109ZM48.102 3.3109H48.588V3.0709H48.102V3.3109Z" fill="white"/>
<path d="M55.476 6.6229C55.404 6.5189 55.318 6.4169 55.218 6.3169C55.122 6.2209 55.026 6.1449 54.93 6.0889C55.318 5.8409 55.64 5.5469 55.896 5.2069C55.8 5.0189 55.714 4.8209 55.638 4.6129C55.566 4.4049 55.508 4.1849 55.464 3.9529C55.436 4.4969 55.354 4.9789 55.218 5.3989C55.082 5.8189 54.866 6.2189 54.57 6.5989C54.474 6.5269 54.372 6.4589 54.264 6.3949C54.156 6.3349 54.04 6.2789 53.916 6.2269C53.936 6.2029 53.956 6.1769 53.976 6.1489C53.996 6.1249 54.014 6.1009 54.03 6.0769C53.918 5.9609 53.808 5.8369 53.7 5.7049C53.596 5.5689 53.506 5.4429 53.43 5.3269L53.808 5.0449H52.392V1.2649H54.372V5.0449H54.132C54.172 5.1049 54.214 5.1649 54.258 5.2249C54.306 5.2809 54.356 5.3369 54.408 5.3929C54.516 5.1249 54.594 4.8309 54.642 4.5109C54.69 4.1869 54.714 3.8069 54.714 3.3709V1.2649H57.546V1.9969H55.476V2.7349H57.192L57.45 2.9269C57.41 3.3629 57.336 3.7729 57.228 4.1569C57.124 4.5409 56.974 4.9009 56.778 5.2369C57.022 5.5409 57.32 5.7929 57.672 5.9929C57.56 6.0769 57.456 6.1729 57.36 6.2809C57.268 6.3929 57.186 6.5009 57.114 6.6049C56.97 6.5009 56.83 6.3869 56.694 6.2629C56.562 6.1429 56.438 6.0109 56.322 5.8669C56.206 6.0029 56.078 6.1329 55.938 6.2569C55.798 6.3849 55.644 6.5069 55.476 6.6229ZM52.638 6.5989C52.55 6.5389 52.438 6.4709 52.302 6.3949C52.166 6.3229 52.05 6.2669 51.954 6.2269C52.038 6.1349 52.122 6.0209 52.206 5.8849C52.294 5.7489 52.374 5.6089 52.446 5.4649C52.518 5.3169 52.572 5.1869 52.608 5.0749L53.286 5.3569C53.246 5.4849 53.19 5.6249 53.118 5.7769C53.05 5.9249 52.974 6.0709 52.89 6.2149C52.806 6.3589 52.722 6.4869 52.638 6.5989ZM56.322 4.4629C56.454 4.1429 56.544 3.8009 56.592 3.4369H56.058C56.102 3.8049 56.19 4.1469 56.322 4.4629ZM53.106 4.3429H53.652V3.9589H53.106V4.3429ZM53.106 3.3289H53.652V2.9629H53.106V3.3289ZM53.106 2.3329H53.652V1.9669H53.106V2.3329Z" fill="white"/>
<path d="M61.476 4.5949C61.344 4.5949 61.222 4.5629 61.11 4.4989C60.998 4.4309 60.908 4.3409 60.84 4.2289C60.776 4.1169 60.744 3.9949 60.744 3.8629C60.744 3.7269 60.776 3.6049 60.84 3.4969C60.908 3.3849 60.998 3.2969 61.11 3.2329C61.222 3.1649 61.344 3.1309 61.476 3.1309C61.612 3.1309 61.734 3.1649 61.842 3.2329C61.954 3.2969 62.042 3.3849 62.106 3.4969C62.174 3.6049 62.208 3.7269 62.208 3.8629C62.208 3.9949 62.174 4.1169 62.106 4.2289C62.042 4.3409 61.954 4.4309 61.842 4.4989C61.734 4.5629 61.612 4.5949 61.476 4.5949Z" fill="white"/>
<path d="M68.34 5.9869C67.988 5.9869 67.73 5.9349 67.566 5.8309C67.406 5.7269 67.326 5.5469 67.326 5.2909V4.2109C66.926 4.2109 66.568 4.2149 66.252 4.2229C65.936 4.2269 65.706 4.2349 65.562 4.2469V3.3949C65.738 3.4069 65.966 3.4169 66.246 3.4249C66.526 3.4289 66.886 3.4309 67.326 3.4309V2.7709C67.078 2.7709 66.856 2.7749 66.66 2.7829C66.464 2.7869 66.32 2.7929 66.228 2.8009V1.9489C66.392 1.9649 66.642 1.9749 66.978 1.9789C67.318 1.9829 67.744 1.9849 68.256 1.9849C68.58 1.9849 68.842 1.9829 69.042 1.9789C69.246 1.9749 69.41 1.9709 69.534 1.9669C69.662 1.9589 69.77 1.9529 69.858 1.9489V2.8009C69.79 2.7929 69.716 2.7869 69.636 2.7829C69.56 2.7789 69.464 2.7749 69.348 2.7709C69.236 2.7669 69.092 2.7649 68.916 2.7649C68.74 2.7649 68.52 2.7649 68.256 2.7649V3.4309C68.892 3.4309 69.394 3.4269 69.762 3.4189C70.13 3.4109 70.386 3.4029 70.53 3.3949V4.2469C70.406 4.2349 70.254 4.2269 70.074 4.2229C69.894 4.2189 69.66 4.2149 69.372 4.2109C69.084 4.2069 68.712 4.2049 68.256 4.2049V4.8769C68.256 4.9729 68.28 5.0389 68.328 5.0749C68.38 5.1069 68.47 5.1229 68.598 5.1229C68.742 5.1229 68.906 5.1209 69.09 5.1169C69.278 5.1089 69.458 5.1009 69.63 5.0929C69.806 5.0809 69.946 5.0669 70.05 5.0509C70.034 5.1149 70.018 5.2009 70.002 5.3089C69.986 5.4129 69.972 5.5209 69.96 5.6329C69.952 5.7409 69.948 5.8329 69.948 5.9089C69.868 5.9209 69.76 5.9309 69.624 5.9389C69.488 5.9469 69.34 5.9549 69.18 5.9629C69.024 5.9709 68.872 5.9769 68.724 5.9809C68.576 5.9849 68.448 5.9869 68.34 5.9869Z" fill="white"/>
<path d="M73.026 6.4909C72.986 6.4109 72.932 6.3209 72.864 6.2209C72.8 6.1249 72.73 6.0309 72.654 5.9389C72.578 5.8469 72.506 5.7709 72.438 5.7109C72.91 5.5349 73.346 5.3149 73.746 5.0509C74.15 4.7829 74.508 4.4789 74.82 4.1389C75.136 3.7989 75.394 3.4329 75.594 3.0409C75.43 3.0529 75.262 3.0649 75.09 3.0769C74.922 3.0849 74.768 3.0929 74.628 3.1009C74.488 3.1049 74.376 3.1069 74.292 3.1069C74.1 3.3549 73.892 3.5869 73.668 3.8029C73.444 4.0149 73.21 4.2069 72.966 4.3789C72.918 4.3189 72.854 4.2509 72.774 4.1749C72.698 4.0949 72.616 4.0189 72.528 3.9469C72.444 3.8709 72.362 3.8089 72.282 3.7609C72.574 3.5929 72.85 3.3789 73.11 3.1189C73.374 2.8549 73.608 2.5709 73.812 2.2669C74.016 1.9589 74.172 1.6569 74.28 1.3609L75.132 1.6669C75.092 1.7669 75.048 1.8689 75 1.9729C74.952 2.0729 74.9 2.1709 74.844 2.2669C75.012 2.2629 75.186 2.2569 75.366 2.2489C75.546 2.2409 75.714 2.2309 75.87 2.2189C76.03 2.2069 76.154 2.1949 76.242 2.1829L76.812 2.4949C76.624 3.0869 76.346 3.6389 75.978 4.1509C75.61 4.6589 75.174 5.1129 74.67 5.5129C74.17 5.9089 73.622 6.2349 73.026 6.4909ZM76.836 2.3869C76.748 2.2709 76.642 2.1509 76.518 2.0269C76.394 1.8989 76.282 1.7969 76.182 1.7209L76.542 1.3789C76.598 1.4229 76.668 1.4849 76.752 1.5649C76.84 1.6449 76.926 1.7289 77.01 1.8169C77.098 1.9009 77.166 1.9749 77.214 2.0389L76.836 2.3869ZM77.37 1.8769C77.282 1.7609 77.176 1.6409 77.052 1.5169C76.928 1.3929 76.816 1.2929 76.716 1.2169L77.076 0.868896C77.132 0.912897 77.202 0.976897 77.286 1.0609C77.374 1.1409 77.46 1.2249 77.544 1.3129C77.632 1.3969 77.7 1.4689 77.748 1.5289L77.37 1.8769Z" fill="white"/>
<path d="M81.54 5.9869C81.188 5.9869 80.93 5.9349 80.766 5.8309C80.606 5.7269 80.526 5.5469 80.526 5.2909V4.2109C80.126 4.2109 79.768 4.2149 79.452 4.2229C79.136 4.2269 78.906 4.2349 78.762 4.2469V3.3949C78.938 3.4069 79.166 3.4169 79.446 3.4249C79.726 3.4289 80.086 3.4309 80.526 3.4309V2.7709C80.278 2.7709 80.056 2.7749 79.86 2.7829C79.664 2.7869 79.52 2.7929 79.428 2.8009V1.9489C79.592 1.9649 79.842 1.9749 80.178 1.9789C80.518 1.9829 80.944 1.9849 81.456 1.9849C81.78 1.9849 82.042 1.9829 82.242 1.9789C82.446 1.9749 82.61 1.9709 82.734 1.9669C82.862 1.9589 82.97 1.9529 83.058 1.9489V2.8009C82.99 2.7929 82.916 2.7869 82.836 2.7829C82.76 2.7789 82.664 2.7749 82.548 2.7709C82.436 2.7669 82.292 2.7649 82.116 2.7649C81.94 2.7649 81.72 2.7649 81.456 2.7649V3.4309C82.092 3.4309 82.594 3.4269 82.962 3.4189C83.33 3.4109 83.586 3.4029 83.73 3.3949V4.2469C83.606 4.2349 83.454 4.2269 83.274 4.2229C83.094 4.2189 82.86 4.2149 82.572 4.2109C82.284 4.2069 81.912 4.2049 81.456 4.2049V4.8769C81.456 4.9729 81.48 5.0389 81.528 5.0749C81.58 5.1069 81.67 5.1229 81.798 5.1229C81.942 5.1229 82.106 5.1209 82.29 5.1169C82.478 5.1089 82.658 5.1009 82.83 5.0929C83.006 5.0809 83.146 5.0669 83.25 5.0509C83.234 5.1149 83.218 5.2009 83.202 5.3089C83.186 5.4129 83.172 5.5209 83.16 5.6329C83.152 5.7409 83.148 5.8329 83.148 5.9089C83.068 5.9209 82.96 5.9309 82.824 5.9389C82.688 5.9469 82.54 5.9549 82.38 5.9629C82.224 5.9709 82.072 5.9769 81.924 5.9809C81.776 5.9849 81.648 5.9869 81.54 5.9869Z" fill="white"/>
<path d="M86.226 6.4909C86.186 6.4109 86.132 6.3209 86.064 6.2209C86 6.1249 85.93 6.0309 85.854 5.9389C85.778 5.8469 85.706 5.7709 85.638 5.7109C86.11 5.5349 86.546 5.3149 86.946 5.0509C87.35 4.7829 87.708 4.4789 88.02 4.1389C88.336 3.7989 88.594 3.4329 88.794 3.0409C88.63 3.0529 88.462 3.0649 88.29 3.0769C88.122 3.0849 87.968 3.0929 87.828 3.1009C87.688 3.1049 87.576 3.1069 87.492 3.1069C87.3 3.3549 87.092 3.5869 86.868 3.8029C86.644 4.0149 86.41 4.2069 86.166 4.3789C86.118 4.3189 86.054 4.2509 85.974 4.1749C85.898 4.0949 85.816 4.0189 85.728 3.9469C85.644 3.8709 85.562 3.8089 85.482 3.7609C85.774 3.5929 86.05 3.3789 86.31 3.1189C86.574 2.8549 86.808 2.5709 87.012 2.2669C87.216 1.9589 87.372 1.6569 87.48 1.3609L88.332 1.6669C88.292 1.7669 88.248 1.8689 88.2 1.9729C88.152 2.0729 88.1 2.1709 88.044 2.2669C88.212 2.2629 88.386 2.2569 88.566 2.2489C88.746 2.2409 88.914 2.2309 89.07 2.2189C89.23 2.2069 89.354 2.1949 89.442 2.1829L90.012 2.4949C89.824 3.0869 89.546 3.6389 89.178 4.1509C88.81 4.6589 88.374 5.1129 87.87 5.5129C87.37 5.9089 86.822 6.2349 86.226 6.4909ZM90.036 2.3869C89.948 2.2709 89.842 2.1509 89.718 2.0269C89.594 1.8989 89.482 1.7969 89.382 1.7209L89.742 1.3789C89.798 1.4229 89.868 1.4849 89.952 1.5649C90.04 1.6449 90.126 1.7289 90.21 1.8169C90.298 1.9009 90.366 1.9749 90.414 2.0389L90.036 2.3869ZM90.57 1.8769C90.482 1.7609 90.376 1.6409 90.252 1.5169C90.128 1.3929 90.016 1.2929 89.916 1.2169L90.276 0.868896C90.332 0.912897 90.402 0.976897 90.486 1.0609C90.574 1.1409 90.66 1.2249 90.744 1.3129C90.832 1.3969 90.9 1.4689 90.948 1.5289L90.57 1.8769Z" fill="white"/>
<path d="M19.4314 24.6616L20.5564 22.5366V34.0991H19.4314V24.6616ZM21.6814 20.3491L22.8064 18.2241V34.0991H21.6814V20.3491ZM23.9314 16.0991L25.0564 13.9585V34.0991H23.9314V16.0991ZM16.3845 24.1304L15.7439 22.9585L23.4939 8.22415H24.7595L16.3845 24.1304ZM15.0876 21.6773L14.4314 20.4898L20.9314 8.22415H22.2126L15.0876 21.6773ZM7.5564 22.6616L8.6814 24.7866V34.0991H7.5564V22.6616ZM5.3064 18.3804L6.4314 20.5054V34.0991H5.3064V18.3804ZM3.0564 14.0991L4.1814 16.2398V34.0991H3.0564V14.0991ZM12.1501 27.3491H10.8845L1.9314 10.3648V34.0991H0.806396V8.22415H2.07202L12.1501 27.3491ZM14.697 27.3491H13.4158L3.35327 8.22415H4.63452L14.697 27.3491ZM26.1814 10.3648L17.2283 27.3491H15.947L5.90015 8.22415H7.16577L16.6033 26.1616L26.0251 8.22415H27.3064V34.0991H26.1814V10.3648Z" fill="white"/>
<path d="M68.6614 24.6616L69.7864 22.5366V34.0991H68.6614V24.6616ZM70.9114 20.3491L72.0364 18.2241V34.0991H70.9114V20.3491ZM73.1614 16.0991L74.2864 13.9585V34.0991H73.1614V16.0991ZM65.6145 24.1304L64.9739 22.9585L72.7239 8.22415H73.9895L65.6145 24.1304ZM64.3176 21.6773L63.6614 20.4898L70.1614 8.22415H71.4426L64.3176 21.6773ZM56.7864 22.6616L57.9114 24.7866V34.0991H56.7864V22.6616ZM54.5364 18.3804L55.6614 20.5054V34.0991H54.5364V18.3804ZM52.2864 14.0991L53.4114 16.2398V34.0991H52.2864V14.0991ZM61.3801 27.3491H60.1145L51.1614 10.3648V34.0991H50.0364V8.22415H51.302L61.3801 27.3491ZM63.927 27.3491H62.6458L52.5833 8.22415H53.8645L63.927 27.3491ZM75.4114 10.3648L66.4583 27.3491H65.177L55.1301 8.22415H56.3958L65.8333 26.1616L75.2551 8.22415H76.5364V34.0991H75.4114V10.3648Z" fill="white"/>
<path d="M40.3792 34.0992C37.8194 34.0992 35.4947 33.6238 33.405 32.673C31.2945 31.7326 29.6071 30.2699 28.3429 28.2847C27.0786 26.2996 26.4465 23.7972 26.4465 20.7777C26.4465 18.3746 26.9428 16.2223 27.9354 14.3207C28.928 12.4191 30.3698 10.9302 32.261 9.85407C34.1625 8.76746 36.3985 8.22415 38.9687 8.22415C40.0553 8.22415 41.1106 8.40699 42.1345 8.77268C43.1689 9.13837 43.9839 9.67123 44.5794 10.3713L45.0966 8.22415H50.5192V17.9096H45.6765C45.3526 16.5932 44.7309 15.5954 43.8115 14.9162C42.892 14.2371 41.9308 13.8975 40.9278 13.8975C39.256 13.8975 37.9343 14.5087 36.9627 15.7312C35.991 16.9536 35.5051 18.6358 35.5051 20.7777C35.5051 22.9405 35.9858 24.6383 36.947 25.8712C37.9082 27.0936 39.2665 27.7048 41.0218 27.7048C41.4397 27.7048 41.889 27.663 42.3696 27.5795C42.7248 27.5168 43.0592 27.4332 43.3726 27.3287C43.6861 27.2138 43.8951 27.1459 43.9995 27.125V24.9152H40.9904V20.2605H51.0364V31.4662C49.4274 32.323 47.7034 32.976 45.8645 33.4252C44.0257 33.8745 42.1972 34.0992 40.3792 34.0992Z" fill="white"/>
<path d="M94.1793 32.63C91.7929 33.5562 89.4537 33.9542 87.1616 33.8239C84.8538 33.7109 82.7515 32.9578 80.8547 31.5646C78.9578 30.1714 77.4631 28.0673 76.3706 25.2523C75.5011 23.012 75.185 20.826 75.4222 18.6941C75.6595 16.5622 76.465 14.6525 77.8386 12.965C79.2182 11.264 81.106 9.94849 83.5021 9.0185C84.5151 8.62533 85.565 8.41397 86.6519 8.38439C87.7485 8.35104 88.7011 8.55292 89.5095 8.99004L89.2148 6.80128L94.27 4.83923L97.7745 13.8685L93.2599 15.6207C92.4816 14.5106 91.541 13.8054 90.4381 13.5049C89.3352 13.2045 88.3163 13.2357 87.3812 13.5987C85.8228 14.2035 84.8118 15.2516 84.3482 16.7427C83.8847 18.2339 84.0404 19.9779 84.8154 21.9747C85.5979 23.9909 86.6603 25.3998 88.0025 26.2014C89.3409 26.9932 90.8283 27.0716 92.4647 26.4364C92.8543 26.2852 93.258 26.0837 93.6758 25.8319C93.9843 25.6449 94.2658 25.446 94.5202 25.2352C94.7708 25.0146 94.941 24.8757 95.0309 24.8184L94.2313 22.7584L91.4261 23.8471L89.7419 19.5078L99.1072 15.8729L103.162 26.3194C101.972 27.7003 100.601 28.9328 99.0491 30.017C97.4974 31.1012 95.8741 31.9722 94.1793 32.63Z" fill="white"/>
</svg>
